PathFileType        4      (X/Y/Z)      C:\Users\cpontonn\Documents\TRAVAIL - COURS\FORMATION DOCTORALE\COURS AUTOMNE\DATA\ESCRIME PROPRE\C3Ds\trial10.trc         
DataRate	CameraRate	NumFrames	NumMarkers	Units	OrigDataRate	OrigDataStartFrame	OrigNumFrames
250.0	250.0	4	45	mm	250.0	221	883
Frame#	Time	LCAR			LFHD			LBHD			RFHD			RBHD			C7			T10			CLAV			STRN			LSHO			LUPA			LRAD			LHUM			LWRB			LWRA			RSHO			RBAC			RUPA			RRAD			RHUM			RWRB			RWRA			RCAR			LFWT			LBWT			RFWT			RBWT			LTHI			LKNE			LKNI			LANE			LANI			LHEE			LTAR			LTARI			LTOE			RTHI			RKNE			RKNI			RANE			RANI			RHEE			RTAR			RTARI			RTOE			
		X1	Y1	Z1	X2	Y2	Z2	X3	Y3	Z3	X4	Y4	Z4	X5	Y5	Z5	X6	Y6	Z6	X7	Y7	Z7	X8	Y8	Z8	X9	Y9	Z9	X10	Y10	Z10	X11	Y11	Z11	X12	Y12	Z12	X13	Y13	Z13	X14	Y14	Z14	X15	Y15	Z15	X16	Y16	Z16	X17	Y17	Z17	X18	Y18	Z18	X19	Y19	Z19	X20	Y20	Z20	X21	Y21	Z21	X22	Y22	Z22	X23	Y23	Z23	X24	Y24	Z24	X25	Y25	Z25	X26	Y26	Z26	X27	Y27	Z27	X28	Y28	Z28	X29	Y29	Z29	X30	Y30	Z30	X31	Y31	Z31	X32	Y32	Z32	X33	Y33	Z33	X34	Y34	Z34	X35	Y35	Z35	X36	Y36	Z36	X37	Y37	Z37	X38	Y38	Z38	X39	Y39	Z39	X40	Y40	Z40	X41	Y41	Z41	X42	Y42	Z42	X43	Y43	Z43	X44	Y44	Z44	X45	Y45	Z45	
221	0.88	1534.89136	1068.5802	39.44526999999997	1112.97424	1548.3114	203.86154000000002	1018.66394	1513.27991	183.98515000000003	1102.63184	1558.84009	419.80966000000006	991.29504	1507.19238	422.44629000000003	941.05963	1370.91504	245.41118000000003	897.1308	1104.31238	170.58615	1054.21228	1265.99243	345.69366	1068.71191	1113.18408	371.6785	1117.62158	1291.31482	130.33868000000004	1173.78333	1165.86731	124.2352	1151.46521	976.94208	22.497969999999988	1134.51367	937.74255	102.40382999999999	1423.12585	949.23969	98.52073999999998	1402.32251	1049.20972	82.72764999999998	840.85553	1309.80713	420.88971	805.18176	1255.09912	267.75824	774.31073	1089.10291	455.14401	697.29858	1009.50098	425.52789	734.21613	977.20447	345.23926	913.61444	953.16547	579.6281100000001	933.8783	1041.52795	554.00299	953.17432	1021.16235	633.72571	1120.14453	886.7793	273.04318	924.53485	884.33081	149.95731	929.67639	884.49628	413.23578	865.27777	890.34552	192.42004	1206.28186	749.75665	168.90520999999998	1351.23059	510.57434	199.86158999999995	1333.21411	476.16879	337.02142	1305.33838	104.60620999999999	178.35514999999992	1288.95557	110.47368999999999	273.54024999999996	1225.62671	62.29564999999999	204.5646099999999	1443.81787	40.47990999999998	186.8270599999999	1418.44788	51.12106999999998	291.81734999999986	1497.31067	54.837639999999986	277.5075699999999	861.75543	502.5271599999999	528.05139	770.62268	437.57003999999995	472.83874999999995	898.68073	381.45389	455.4359099999999	680.38751	118.10969999999999	192.51304999999996	764.31409	75.45006999999998	230.63227999999995	732.60248	69.43397999999999	134.72794999999994	596.64453	48.92444999999998	305.22231999999997	704.4566	48.06738999999998	342.36324999999994	653.64215	50.85136999999998	397.80367999999993	
222	0.884	1534.95142	1068.55408	39.51788999999997	1112.99475	1548.2998	203.91681000000003	1018.68188	1513.29175	184.01767000000004	1102.63391	1558.80884	419.88181000000003	991.35791	1507.16797	422.49631000000005	941.08527	1370.89209	245.43846000000002	897.13867	1104.29126	170.6086	1054.24451	1265.99744	345.73767	1068.7699	1113.18921	371.76981	1117.64563	1291.29871	130.36754000000002	1173.82092	1165.8783	124.2515	1151.52039	976.93048	22.521999999999988	1134.56775	937.72577	102.48097999999999	1423.2876	949.37756	98.45675999999997	1402.35754	1049.21472	82.76567999999999	840.83673	1309.79053	420.88708	805.17181	1255.09351	267.7796	774.3219	1089.10754	455.17902	697.31085	1009.48083	425.57101	734.20148	977.19824	345.28406	913.72223	953.29022	579.5819700000001	933.90942	1041.49683	554.00311	953.13562	1021.11285	633.72864	1119.91858	886.67554	272.95874	924.53198	884.33246	149.95613	929.67627	884.43451	413.24792	865.29376	890.32501	192.42664	1206.27783	749.74725	168.92290999999997	1351.24207	510.58167	199.89095999999995	1333.21436	476.15988	337.06088	1305.33374	104.61491999999998	178.35854999999992	1288.90845	110.41128999999998	273.5722999999999	1225.61084	62.29830999999999	204.55707999999993	1443.823	40.52252999999999	186.78844999999993	1418.47083	51.08875999999998	291.7940399999999	1497.29126	54.68389999999999	277.6894499999999	861.71655	502.47832999999997	528.13525	770.75983	437.51705999999996	472.96529999999996	898.6582	381.4202	455.50161999999995	680.44324	118.09650999999998	192.55161999999999	764.41736	75.53043999999998	230.51656999999994	732.61615	69.45182999999999	134.73310999999995	596.75372	48.93846999999998	305.22420999999997	704.4173	47.99247999999998	342.41134999999997	653.65277	50.84388999999998	397.79619999999994	
223	0.888	1535.00049	1068.54089	39.524589999999975	1113.00354	1548.27649	203.92061000000004	1018.70233	1513.26746	184.04381000000004	1102.60803	1558.78516	419.91476000000006	991.34149	1507.14453	422.47171000000003	941.08887	1370.87036	245.47583000000003	897.14819	1104.27649	170.64119	1054.25208	1265.99365	345.76788	1068.81738	1113.2063	371.80511	1117.66394	1291.30725	130.42783000000003	1173.85876	1165.88428	124.32235	1151.5271	976.92267	22.56404999999999	1134.58569	937.724	102.50135999999999	1423.21362	949.24402	98.65619999999997	1402.40796	1049.22852	82.80994999999999	840.85376	1309.80652	420.96155	805.21222	1255.04932	267.83389	774.38715	1089.11523	455.22766	697.3407	1009.47083	425.60941	734.22272	977.17792	345.33185	913.75031	953.30029	579.5673200000001	933.96698	1041.51501	553.99329	953.27307	1021.12299	633.71857	1120.12769	886.745	273.03702	924.54279	884.29358	149.94754	929.6748	884.39929	413.25244	865.29358	890.34198	192.41489	1206.2959	749.76727	168.90464999999998	1351.25269	510.58691	199.90529999999995	1333.20764	476.15387	337.09631	1305.34204	104.62734999999999	178.36765999999992	1288.91541	110.48080999999999	273.56756999999993	1225.63098	62.32902999999999	204.5494999999999	1443.84082	40.50063999999998	186.7869699999999	1418.45862	51.09457999999998	291.78814999999986	1497.26978	54.700439999999986	277.6515799999999	861.79419	502.49242999999996	528.14063	770.78741	437.4607199999999	473.03310999999997	898.67365	381.41568	455.58727999999996	680.47003	118.09053999999999	192.55477999999997	764.43005	75.52643999999998	230.52216999999993	732.64185	69.44516999999999	134.74199999999993	596.70282	48.898249999999976	305.29671999999994	704.39374	47.97244999999998	342.40081999999995	653.66382	50.848149999999976	397.80700999999993	
224	0.892	1534.99072	1068.54077	39.66680999999997	1113.0426	1548.23999	203.99809000000002	1018.72388	1513.25793	184.11325000000002	1102.6781	1558.74658	419.92578000000003	991.33002	1507.11011	422.50961000000007	941.09045	1370.84961	245.49277000000004	897.15039	1104.24365	170.65155	1054.24841	1265.98694	345.8324	1068.82947	1113.21069	371.8291	1117.67212	1291.27942	130.42444000000003	1173.87817	1165.88391	124.29699	1151.56836	976.91357	22.58652999999999	1134.11328	937.71967	102.06083999999998	1423.40417	949.33203	98.56821999999997	1402.40405	1049.23462	82.83536999999998	840.85815	1309.78381	421.00021	805.19141	1255.02405	267.87106	774.40546	1089.0907	455.26547	697.36505	1009.44714	425.6608	734.26123	977.16632	345.34558	913.80792	953.26465	579.5757400000001	934.02429	1041.47754	554.01593	953.35345	1021.11353	633.74005	1119.91162	886.65265	272.96381	924.53235	884.29999	149.96565	929.68292	884.36273	413.27396	865.30115	890.33459	192.42073	1206.29724	749.73969	168.92835999999997	1351.29956	510.57343	199.93781999999993	1333.2113	476.16202	337.1077	1305.34729	104.63193999999999	178.3995999999999	1288.93738	110.45775999999998	273.56084999999996	1225.62793	62.31743999999998	204.5606099999999	1443.84119	40.500019999999985	186.8080099999999	1418.46143	51.08393999999998	291.7683699999999	1497.33289	54.776299999999985	277.5399799999999	861.80261	502.49337999999995	528.15991	770.81885	437.41338999999994	473.0811499999999	898.70251	381.39645	455.70931999999993	680.47589	118.08245999999998	192.57807999999997	764.40796	75.52615999999999	230.53196999999994	732.62415	69.45215999999999	134.72829999999993	596.75543	48.96422999999998	305.23934999999994	704.40961	47.985329999999976	342.42089999999996	653.64197	50.83649999999998	397.77514999999994	
